<svg xmlns="http://www.w3.org/2000/svg" viewBox="0 0 371.71 385.8"><defs><style>.cls-1{fill:none;}</style></defs><g id="Layer_2" data-name="Layer 2"><g id="Artwork_2" data-name="Artwork 2"><path d="M130.74.18c-.56.21-2.27.82-2.72,2.18A5.71,5.71,0,0,1,127.48,4a3.6,3.6,0,0,1-1.09,1.09,15.72,15.72,0,0,0-6,.54A16,16,0,0,0,113.32,10c-1.15.87-7.07,5.32-10.89,8.71a5.85,5.85,0,0,0-1.63,2.18c-1,2.53.26,5.36.54,6,1.07,2.36,2.66,3.53,2.18,4.35-.18.31-.47.28-1.09.55a6.43,6.43,0,0,0-2.72,2.72,12.06,12.06,0,0,0-1.63,4.35,15.32,15.32,0,0,0-.55,5.45c.12,1,.3,1.5,0,2.18-.55,1.27-2.31,2.11-3.26,1.63-.53-.27-.42-.76-1.09-1.63A4.92,4.92,0,0,0,91,44.82c-1.72-.51-3.85.72-4.9,2.18-.88,1.23-.5,1.93-1.63,3.27a4.58,4.58,0,0,1-2.18,1.63c-1.69.48-2.57-.81-4.36-.54A4.69,4.69,0,0,0,75.21,53,11.11,11.11,0,0,0,73,57.89c-.24.94-.23,1.21-.54,1.63-.14.2-.66.85-3.27,1.64-1.62.49-1.68.2-2.17.54-.82.56-1.1,1.65-1.64,3.81C65,67.33,65,68,64.32,68.78a3.55,3.55,0,0,1-1.63,1.09c-.22.06-.87.26-1.09,0s.2-.65,0-1.09a1.09,1.09,0,0,0-1.09-.55c-.31,0-.51.26-1.09,1.09-1,1.4-.79,1.4-1.09,1.64-.58.46-1.31.49-2.72.54-.87,0-.77-.06-1.09,0-1.41.29-2.62,2.13-2.72,3.81a14.19,14.19,0,0,1,0,2.18,2.58,2.58,0,0,1-.54,1.63c-.44.44-1,.48-2.18.55-1.57.08-1.59-.2-2.18,0-1.2.4-1.79,1.8-2.18,2.72a6.18,6.18,0,0,0-.54,2.18c-.06,1.05.22,1.36,0,2.17a3.06,3.06,0,0,1-1.09,1.64c-.66.47-1.06.25-2.18.54-.73.2-2.24.59-2.72,1.64s.53,1.88,0,2.72c-.39.62-1,.34-2.72,1.09-1,.44-1.82.82-2.18,1.63s.1,1,0,2.18c0,.23-.22,2.38-1.63,3.26-.31.2-.36.13-2.18.55-1.34.31-2,.46-2.18.54-1.65.83-2.28,3.51-2.18,5.45s.88,2.28.55,3.81c-.3,1.34-1.27,2.75-2.18,2.72-.5,0-.56-.45-1.09-.54-1.27-.24-3.33,1.84-3.26,3.81a6.09,6.09,0,0,0,1.08,2.72c.66,1.11,1.14,1.47,1.09,2.18a2.53,2.53,0,0,1-1.09,1.63c-1.35,1.19-2.47.7-3.81,1.63a4.89,4.89,0,0,0-1.63,2.18c-.79,2.27,1.12,3.52.54,6.53a3.07,3.07,0,0,1-1.08,2.18c-.61.39-1.07.16-2.73.55a5,5,0,0,0-1.63.54,3.51,3.51,0,0,0-1.63,2.18,9.94,9.94,0,0,0,0,2.18,3.2,3.2,0,0,1,0,.54c-.1.74-.66,1-1.09,1.63a10,10,0,0,0-.55,1.64,9.47,9.47,0,0,0-.54,2.18c.18.88.95.92,1.63,2.17a5.55,5.55,0,0,1,.55,1.64c.21,1.36-.42,2.06-1.64,4.9a9.78,9.78,0,0,0-1.09,4.35c0,.43.06,1.47.55,1.64.19.06.44,0,1.09-.55,1.34-1.11,1.36-1.68,2.18-2.18s1.11,0,2.17-.54a6.05,6.05,0,0,0,2.18-2.18c1-1.33.92-1.79,1.63-2.18a2.08,2.08,0,0,1,2.18,0c.3.29.15.57.55,1.64a3.2,3.2,0,0,0,.54,1.09,2.35,2.35,0,0,0,2.18.54A3.43,3.43,0,0,0,23,156.43c.15-.45.18-.87.54-1.09a1.4,1.4,0,0,1,1.09,0c1.16.46,1.71,2.4,1.63,3.81-.13,2.4-2.33,4-2.72,4.36-4.51,3.65-7.61,17.57-10.34,27.22C9.6,203.27,2.28,224.17.62,235.37c-.05.36-1,7.36,1.64,8.72.76.38,1.92.36,2.18,1.08s-.77,1.81-1.09,2.18c-2.83,3.2.52,12.32,3.26,17.42,2.13,4,3.79,7.47,7.63,9.8,1.39.85,1.1.36,4.9,2.18,5.4,2.59,6.63,3.89,9.8,4.36,1.48.22,4.18.62,5.44-.55.18-.16.67-.68,1.09-.54s.52.7.54,1.09c0,.21,0,.74-1.09,2.17-.91,1.2-1.36,1.8-2.17,2.18-.59.28-.86.22-1.09.55s-.09.85,0,2.17a6.69,6.69,0,0,1,0,1.64A5.34,5.34,0,0,1,30.57,292c-.32.44-.43.51-.55.54-.53.15-.92-.54-1.63-.54a1.85,1.85,0,0,0-1.09.54,9.8,9.8,0,0,1-3.81,1.63c-.78.2-1.84.46-2.18,0s.34-1.3,0-1.63-1.32.45-2.17,0a1.64,1.64,0,0,1-.55-.54c-1-1.2-5.85.13-10.89,3.26-.85.53-2.7,1-3.81,2.72a6,6,0,0,0-.54,1.09c-.91,2.26-.33,3.88-1.09,5.45l-.55,1.09-.54,1.09a16.5,16.5,0,0,0-1.09,4.9,21.53,21.53,0,0,0,.54,7.07c.64,2.48,1.24,2.87,4.36,8.71,2.14,4,3.22,6.05,3.81,8.17a33.75,33.75,0,0,1,1.09,7.08,47,47,0,0,1,0,6.53c-.08,1.18-.14,1.44-.54,6a14.73,14.73,0,0,0,0,4.36,7.37,7.37,0,0,0,1.08,3.26c1.06,1.49,2.21,1.42,3.82,2.72,1.25,1,1.67,2,2.72,3.81A74.5,74.5,0,0,0,23,378a32,32,0,0,0,5.44,5.44,12.1,12.1,0,0,0,3.27,2.18c4.16,1.32,10.55-5.59,13.06-9.8a12,12,0,0,0,1.64-5.45,4.87,4.87,0,0,0-.55-2.72A4.71,4.71,0,0,0,44.18,366a9.19,9.19,0,0,1-1.09-.55A3.29,3.29,0,0,1,42,363.86c-1.36-4-.54-14.7-.54-14.7.25-3.29.23-3.83.54-7.62.35-4.27.07-4.69.55-6,.94-2.57,2.49-3.66,2.72-6a8.32,8.32,0,0,1,.54-2.18,3.6,3.6,0,0,1,1.09-1.63,2.56,2.56,0,0,1,1.09-.54c1.06-.21,1.77.63,2.72,1.08a5.94,5.94,0,0,0,6.54-1.63,6.72,6.72,0,0,0,1.08-2.72,18.69,18.69,0,0,0,.55-4.36V316.5c-.05-.68-.16-.93,0-1.09s.51-.07,1.09,0H61.6a13.35,13.35,0,0,0,4.9-1.64,24.6,24.6,0,0,1,3.27-1.63A12.52,12.52,0,0,1,72,311.6a41.6,41.6,0,0,1,6.53-.55A46.26,46.26,0,0,0,87.73,310a61.55,61.55,0,0,0,7.63-2.18,61.67,61.67,0,0,0,8.71-3.26c2.46-1.21,2.81-1.66,6-3.27,1.79-.91,3.2-1.5,6-2.72,3.16-1.38,1.49-.53,2.73-1.09,1.06-.48,1.28-.65,1.63-.54.75.22.82,1.32,1.63,3.26.61,1.44.87,1.35,1.09,2.18a9.27,9.27,0,0,1,0,3.27c-.13,2.21.12,2.29,0,3.81a14.46,14.46,0,0,1-1.09,4.35c-1.74,4.57-2.87,10.16-4.9,20.15a22.06,22.06,0,0,0-.54,5.44,16.34,16.34,0,0,0,1.63,7.08,18.5,18.5,0,0,0,3.81,4.9c2.2,2.23,2.72,3.07,3.81,3.27a10.54,10.54,0,0,0,3.27-.55c.62-.15,1.76-.43,3.81-1.09,2.35-.74,2.31-.83,3.27-1.09a19.47,19.47,0,0,1,4.9-.54c2.36-.09,4.71-.39,7.08-.55,11-.7,10-1.35,13.61-1.08,2.77.2,4.06.62,9.8,1.08a22.29,22.29,0,0,0,4.9,0,13,13,0,0,0,6.53-2.17,16.63,16.63,0,0,0,3.27-3.81c4.22-5.82,2.81-5.72,6-10.35a4.37,4.37,0,0,0,1.09-3.27,4.13,4.13,0,0,0-1.63-2.17c-.23-.21-2.15-2.32-6-6.54-1.21-1.33-1.72-1.94-2.72-2.17a5.13,5.13,0,0,0-3.27.54c-1.15.59-1.09,1.08-2.18,1.63a6.07,6.07,0,0,1-3.26.55c-1-.06-3.14-.18-4.36-1.64s-.35-2.78-1.63-4.35c-.17-.21-.55-.63-2.72-1.63-1.23-.57-5.59-2.49-8.17-3.81-.32-.17-.94-.5-1.09-1.09-.22-.9.77-1.85,1.09-2.18a20.75,20.75,0,0,0,3.81-7.08,15.2,15.2,0,0,0,.55-3.27c.26-3.05-.34-4-.55-4.35a4.34,4.34,0,0,0-1.09-1.09c-1.27-1-3.54-2-4.9-1.09a6.94,6.94,0,0,0-.54.55c-1.83,1.92-2,2.23-2.18,2.17-.68-.17-.23-3.28,0-4.35a2.1,2.1,0,0,1,.55-1.09,2.15,2.15,0,0,1,1.08-.55c1.64-.33,5.89-3.05,7.08-3.81a19.42,19.42,0,0,0,6-6c.45-.71,1.44-2.37,2.72-9.25A74.29,74.29,0,0,0,171.58,255c0-3.27-.49-5-.55-9.25a10.52,10.52,0,0,0,0-1.63,7,7,0,0,0-1.09-3.27c-1.45-2-3.75-1.53-4.35-3.27-.18-.51,0-.6,0-1.63,0-.56-.07-1.87-1.64-5.45-1-2.29-1.1-2-2.17-4.35a24.48,24.48,0,0,1-1.64-4.36,22,22,0,0,1-.54-3.81c-.37-4.39-.56-6.58-.55-7.62,0-1.78.17-1.88,1.09-8.17.69-4.72,1-7.12,1.09-8.71a55.66,55.66,0,0,0-.54-8.71c-.37-3.38-.21-5.81-1.09-7.62-1-2.12-1.55-3.17-1.63-3.27-.24-.26-.68-.71-.55-1.08,0-.09.16-.37,1.09-.55a9.9,9.9,0,0,1,2.18,0,7.82,7.82,0,0,0,3.26-1.09c.41-.2.57-.31,1.09-.54.71-.32.87-.31,1.09-.55s.2-.69.55-1.09c.17-.2.38-.32,1.09-.54a10.19,10.19,0,0,1,2.17-.54,8.44,8.44,0,0,1,2.18,0c1.44.18,1.73.62,2.72.54a4.11,4.11,0,0,0,1.64-.54c2.65-1.44,2.43-.69,8.16-3.82,1.48-.8,5.37-3,6.54-4.9a7.58,7.58,0,0,0,.54-1.08c.51-1.33.19-1.81.54-2.73s1.09-1.42,2.18-2.17a6.43,6.43,0,0,1,2.18-1.09,4.4,4.4,0,0,1,2.72,0c.81.28.79.83,1.64,1.09a3.29,3.29,0,0,0,1.63,0,5.25,5.25,0,0,0,2.18-1.09,10.54,10.54,0,0,0,4.35-7.63c.16-1.47-.08-1.86,0-3.26,0-.62.12-.64,1.09-4.36.33-1.28.43-1.68.55-2.18.29-1.3.38-1.91.54-2.72a30.65,30.65,0,0,1,1.09-3.81c1.16-3.57,1.43-4,2.18-6.53a9.41,9.41,0,0,0,.54-4.9c-.14-.66-.13-1.21-.54-1.63a1.57,1.57,0,0,0-1.09-.55c-.56,0-1,.54-1.64,1.63a46.5,46.5,0,0,0-2.17,4.9,14.16,14.16,0,0,1-1.09,2.18c-1.25,1.82-2.31,1.78-3.81,3.27a12,12,0,0,0-2.73,4.9c-.93,2.62-.23,2.62-1.08,4.35s-1.44,1.55-4.9,4.9c-.09.09-.75.73-1.09.55s-.14-.87-.55-1.09a.71.71,0,0,0-.54,0,4,4,0,0,0-1.64,1.09,6.24,6.24,0,0,1-2.17,1.09,12,12,0,0,1-3.27.54c-2.33.24-3.49.36-4.36.55-1.85.4-1.8.69-3.81,1.08-2.55.51-3.41.19-3.81,0-.72-.34-.76-.66-1.63-1.08a5.86,5.86,0,0,0-2.72-.55c-6.8,0-17.42,4.9-17.42,4.9a10,10,0,0,1-4.9,1.09,9.37,9.37,0,0,1-3.82-1.09c-4.12-2.1-6.38-6.7-7.07-8.17-3.25-6.83-4.7-13.17-6-19.59-1.33-6.62-2.24-11.19-2.72-15.25-.24-1.95-.74-3.41-.55-5.44.4-4.33,2.43-8.53,5.45-10.35a8.36,8.36,0,0,1,1.08-.54c.38-.15,3.39-1.31,6,0,1.44.72,1.16,1.4,3.81,3.26a5.79,5.79,0,0,0,2.18,1.09,3.87,3.87,0,0,0,3.27-.54,4.06,4.06,0,0,0,1.09-2.72c.19-1.52-.3-1.76,0-3.27A3.53,3.53,0,0,1,152,84a3,3,0,0,1,1.09-.54c1.29-.37,1.82.29,2.72,0a2.61,2.61,0,0,0,1.63-2.72,13.42,13.42,0,0,0-1.09-1.64c-.42-.6-.57-.8-.54-1.09a1.47,1.47,0,0,1,1.09-1.09c.4-.11.52,0,1.09,0a2.64,2.64,0,0,0,1.63-.54,2.71,2.71,0,0,0,.54-2.18,10.37,10.37,0,0,0-.54-2.17c-.06-.24-.22-1.07-.55-2.73-.16-.87-.27-1.44,0-1.63a.66.66,0,0,1,.55,0c1.45.42,3.42-.47,4.35-1.09.58-.39.94-.62,1.09-1.09s0-1.18-1.09-2.72c-1.59-2.32-2.14-2.44-2.72-3.81a7.28,7.28,0,0,1-.54-2.72c0-.73,0-2.6,1.09-3.27.55-.34,1.16-.22,2.17,0,2.9.63,5.79,1.35,7.08,1.63s2.31.42,3.27.55c4.72.61,7.63,1,10.34-.55a9,9,0,0,0,3.27-3.26c.3-.49,2.46-4,1.09-7.08a6.4,6.4,0,0,0-1.09-1.63,8.15,8.15,0,0,0-3.27-2.18,26.39,26.39,0,0,0-7.08-1.64c-3.19-.42-4.78-.7-5.44-.54-.22.05-2.25.57-3.27,0a1.34,1.34,0,0,1-.54-.54,1.5,1.5,0,0,1,0-1.09c.21-.65.32-3.34.54-8.71.16-3.79.18-5.09-.54-6.54a8.21,8.21,0,0,0-1.09-1.63c-4.4-5.25-13.21-10-16.33-12.52a23,23,0,0,0-3.27-2.18A8.16,8.16,0,0,0,144.35,4a16.42,16.42,0,0,0-6,0c-.21,0-1,.23-1.09,0s.41-.52.54-1.09a1.83,1.83,0,0,0-.54-1.63,2.25,2.25,0,0,0-1.09-.55C133.3.09,131.86-.22,130.74.18Z"/><path class="cls-1" d="M31.66,110.16c.65,1-.13,2.84-.55,3.81s-.74,1.34-.54,1.63,1.09.21,1.63,0c1.81-.69,2.91-3.22,2.72-5.44-.05-.63-.22-2.64-1.63-3.27a2.27,2.27,0,0,0-2.72.54,1.82,1.82,0,0,0,0,1.64C30.88,109.72,31.32,109.62,31.66,110.16Z"/><path class="cls-1" d="M42.55,115.6a3.3,3.3,0,0,0-1.09,1.63h0a1.94,1.94,0,0,0,.54,1.09c.31.21.56,0,1.09,0,1.1.06,1.4,1.17,2.18,1.09a1.46,1.46,0,0,0,1.09-1.09c.28-1.12-1-2.34-2.18-2.72A2,2,0,0,0,42.55,115.6Z"/><path class="cls-1" d="M62.15,85.11c-.6-.37-2.28.74-2.73,2.18-.14.45-.18,1,0,1.09s.51-.52,1.09-.55a1.64,1.64,0,0,1,1.09.55c.72.59.71,1,1.09,1.09a1.16,1.16,0,0,0,1.09-1.09c-.05-.46-.63-.46-1.09-1.09C62,86.35,62.61,85.4,62.15,85.11Z"/><path class="cls-1" d="M92.09,72.05c-.72-.47-2.8.63-3.27,2.17-.29,1,.28,1.29,0,2.72-.24,1.25-.83,1.8-.54,2.18s1.09.26,1.63,0a3.27,3.27,0,0,0,1.63-2.72c.08-1.05-.35-2,0-2.18.18-.1.35.1.55,0C92.57,74,92.68,72.43,92.09,72.05Z"/><path d="M370.84,329c0-2,.29-1.61.54-5.45s.38-5.58,0-7.07c-.65-2.59-1.66-2.44-4.35-7.08a48.78,48.78,0,0,1-3.27-6.54c-1.26-3.12-1.52-4.79-3.27-6a7.31,7.31,0,0,1-2.17-1.64,4.51,4.51,0,0,1-1.09-3.26c.19-1.34,1.1-1.47,1.09-2.73,0-.88-.47-1-.55-2.17,0-.73,0-2,.55-2.18s1.65,1,2.17,2.18c.3.63.33,1.07.55,1.08s.55-.77,1.09-2.17c.75-2,.81-1.91,1.09-2.73.66-2,2-6,.54-9.8-.72-1.81-1.89-3-1.63-3.26s2.68,2.07,3.26,1.63-1.41-4.17-1.08-4.35,1.75,2.36,2.17,2.17c.63-.28-1.78-6.19-1.09-6.53.31-.15,1.11.8,1.64,1.63,1.77,2.84,1.2,5.93,1.63,6,.27,0,.88-1.12,1.09-2.72.88-6.53-5.46-14.72-6.53-15.79-.13-.13-.65-.61-.55-1.09a.71.71,0,0,1,.55-.54c.55,0,1,1.14,1.09,1.09s-.85-2.56-.55-2.72c.05,0,.22-.05,1.09,1.08,1.54,2,1.93,3.33,2.18,3.27s.69-2.62-.55-4.9-2.7-2.15-4.35-4.9a6.28,6.28,0,0,1-1.09-2.72,14.29,14.29,0,0,0,2.72,3.27c1.07.84,2.08,1.23,2.18,1.08s-1.16-1-1.63-2.72c-.1-.33-.25-.89,0-1.09s1.11.09,1.63.55c.36.31.43.56.54.54.31-.06.19-2.16,0-3.26-1-5.64-8.07-9-7.62-9.8.23-.4,1.87-.26,2.72.54.29.27.46.58.55.54s-.26-1.44-.55-2.17a13.52,13.52,0,0,0-1.25-2.41,1.41,1.41,0,0,0,.71-.32c.42-.35.74-1.17,1.09-1.08s.24,1,.54,1.08c.57.22,2.5-2.53,3.81-6,2-5.31,1.88-10.32,1.64-10.35s-.8,3.85-1.09,3.81c-.12,0-.18-.72,0-3.81.26-4.7.49-5.14.54-7.08a23.5,23.5,0,0,0-2.18-10.88c-.91-1.86-2-3.36-2.17-3.27s.31,1,.54,2.72c0,.32.27,2.11,0,2.18s-.77-1.18-1.09-2.18a11.46,11.46,0,0,1-.54-3.27c-.1-3.8-3.67-8.27-4.9-9.8-2.23-2.77-3.35-4.16-5.45-4.89-3.34-1.17-6.83.07-8.16.54s-3.57,1.53-4.9,2.18-1.94,1.3-2.18,1.09.15-1.57,1.09-2.18c.78-.51,1.61-.35,1.63-.55s-.78-.59-1.63-.54c-.32,0-1,.12-2.72,1.63-1.23,1.1-1.12,1.29-2.18,2.18s-1.37.84-2.18,1.63c-1.21,1.2-1.47,2.25-1.63,2.18s-.07-1.78,1.09-2.72c.48-.4,1.11-.44,1.08-.55s-.57-.13-1.08,0a2.81,2.81,0,0,0-1.09.55,14.9,14.9,0,0,0-2.18,2.18c-1.35,1.7-2,2.54-2.18,2.72-1.11,1.2-2.25,2.08-2.18,2.18a13.28,13.28,0,0,1,1.64-.55c.47-.08.53,0,.54,0,.11.2-.78.86-1.09,1.09-.9.68-1.15.66-1.63,1.09a5.74,5.74,0,0,0-1.09,1.63c-.54.95-.09.09-1.63,2.73A5.84,5.84,0,0,0,318,194a4.23,4.23,0,0,0,0,.54.53.53,0,0,0,0,.13c-.17,0-.37-.09-.56-.13-2.73-.53-3.26,0-3.26,0a2.5,2.5,0,0,1-.55,0,3.37,3.37,0,0,1-2.17-1.63c-.68-1-4.58-6.53-3.82-7.08.35-.25,1.34.8,1.64.55s-1.36-2.5-1.09-2.73,1,.46,1.63,1.09c.34.36.46.58.55.55s.11-1.5-.55-2.73c-1-1.91-2.92-2.4-2.72-3.26a.82.82,0,0,1,.54-.55,2.06,2.06,0,0,1,2.18,1.64c0,.29,0,.54,0,.54a3,3,0,0,0,.55-2.18c-.24-1.21-1.62-1.89-2.18-2.17-3.79-2-8.4-5.92-10.35-9.8-.15-.32-1.57-2.89-1.08-3.27.3-.23,1.35.3,1.63,1.09a2.19,2.19,0,0,1,0,1.09,4.15,4.15,0,0,0,.54-2.18c0-1.5-.91-1.84-2.17-4.36-1.09-2.16-.79-2.63-1.64-3.26a23.42,23.42,0,0,0-2.18-1.64c-.22-.13-.55-.31-.54-.54s.61-.65,1.09-.54c.68.14.86,1.13,1.09,1.08s.41-1.13,0-2.17a5.53,5.53,0,0,0-3.27-2.73c-.87-.3-1.11-.16-1.63-.54-1.09-.79-1.48-2.42-1.09-2.72s1.38.77,1.63.54c.4-.36-1.46-3.7-4.35-6.53a24.9,24.9,0,0,1-2.18-2.18,10.12,10.12,0,0,1-2.18-4.35c0-.09-.19-1,0-1.09s.82,1.17,1.09,1.09.1-1.09,0-1.64a16,16,0,0,0-3.81-7.62c-1.14-1.16-1.92-1.56-2.18-2.72a3.44,3.44,0,0,1,.55-2.72c.47-.58.87-.5,1.63-1.09a6,6,0,0,0,1.63-2.18,10.24,10.24,0,0,0,1.64-5.44,9.17,9.17,0,0,0-2.73-6c-1.14-1-2.29-1.36-2.72-2.73a4.31,4.31,0,0,1,0-2.17c.32-1.79,1.09-2.61,1.63-3.81a9.47,9.47,0,0,0,.55-4.9c-.39-5.35-5.37-10.39-10.34-11.44-.92-.19-3.16-.66-4.9.55A3.49,3.49,0,0,0,262,81.84c-.13.85.28,1.41,0,1.64s-1.46-.27-2.18-1.09a5.28,5.28,0,0,1-1.08-3.27c-.41-5.52-.61-8.27-2.18-9.8-.76-.73-1.55-1-2.18-2.17a5.41,5.41,0,0,1-.54-2.73c0-2.81-1.65-7.56-4.9-9.25-2.74-1.43-6-.36-7.08,0a11.7,11.7,0,0,0-3.54,1.9,3.67,3.67,0,0,1,1.63.55,4.15,4.15,0,0,1,1.64,2.18,15.56,15.56,0,0,1,1.63,6,4.69,4.69,0,0,1-.27,1.91c-.26.69-.67.84-1.09,1.63a6.14,6.14,0,0,0-.55,1.64,13.47,13.47,0,0,0-.54,4.9c.19,1.59.39,3.24,1.63,4.35.71.63,1.47.84,1.64,1.63a1.87,1.87,0,0,1-.55,1.64,2.62,2.62,0,0,1-1.63.54A10,10,0,0,0,238,85.66a8.15,8.15,0,0,0-2.73,2.17A7.5,7.5,0,0,0,234.19,90c-.83,2.64.36,3.67-.55,6A4.17,4.17,0,0,1,232,98.18a3.76,3.76,0,0,1-2.18.54c-.74-.06-.76-.31-1.63-.54a9,9,0,0,0-3.81,0c-.55.12-1.2.34-1.64,0-.23-.18-.23-.38-.54-.55a1.23,1.23,0,0,0-1.09,0,1.5,1.5,0,0,0-.54.55,2.4,2.4,0,0,0-.55,1.09c0,.21,0,.46.55,1.63.19.41.47.62.54,1.09a1.91,1.91,0,0,1,0,.54,2.2,2.2,0,0,1-.54,1.09c-.71.85-.73,3.21,0,4.9a9.79,9.79,0,0,0,1.63,2.18c2.13,2.49,2.8,2.69,3.81,4.36a8.05,8.05,0,0,1,1.09,2.72,3.94,3.94,0,0,1,0,2.18c-.2.53-.52.89-2.18,2.17-1.41,1.09-1.5,1.09-2.18,1.64a19.12,19.12,0,0,0-2.72,2.72,10.83,10.83,0,0,0-2.18,3.26,12,12,0,0,0-.54,3.82,8.51,8.51,0,0,0,0,2.72c.21.67.68.73,1.63,2.18a3.68,3.68,0,0,1,.55,1.08,3.44,3.44,0,0,1,0,1.64c-.49,2.29.91,3.89,0,6.53-.25.72-.54,1.54-1.09,1.63-1.13.19-2.63-2.75-3.27-4.9a14.81,14.81,0,0,1-.54-3.81c0-1.37,0-2,0-2.17a2.39,2.39,0,0,0,0-.55,1.93,1.93,0,0,0-1.64-1.63,3.12,3.12,0,0,0-1.63,0,3.71,3.71,0,0,0-1.09.54c-2.17,1.65-1.41,13.8-1.63,16.34a2.94,2.94,0,0,0,0,.54,3.61,3.61,0,0,0,1.63,2.72,6.53,6.53,0,0,0,2.18.55c2.28.38,2.46.19,3.27.54.13.06.08,0,2.17,1.63,1,.77,1.39,1,1.64,1.64s.34,1.4,0,1.63a.65.65,0,0,1-.55,0c-1.27-.39-3.37.86-4.35,1.63a9.3,9.3,0,0,0-2.18,2.73,33,33,0,0,0-1.63,3.26c-.52,1.1-1.1,2.18-1.64,3.27s-.65,1.38-1.09,1.63c-.77.46-1.41,0-2.72,0a6.93,6.93,0,0,0-3.81,1.09c-.76.54-1.23,1.46-2.18,3.27a3.24,3.24,0,0,0-.54,2.18,2,2,0,0,0,.54,1.08,2.14,2.14,0,0,0,1.09.55c2.49.51,8.71-.42,10.89,0a2.49,2.49,0,0,0,1.09,0A3.11,3.11,0,0,0,214,182a7.7,7.7,0,0,0,1.09-2.18c.65-1.55,1-2.33,1.09-2.72a4.62,4.62,0,0,1,.54-1.63,3.42,3.42,0,0,1,1.64-1.09,21.92,21.92,0,0,1,3.26-1.09c3.16-.71,4.76-1.06,6-.54a5.32,5.32,0,0,1,1.64,1.08,6.94,6.94,0,0,1,1.63,2.73,7.49,7.49,0,0,1,.54,2.17,6.11,6.11,0,0,1,0,1.09,58.08,58.08,0,0,0,.55,8.71,35.23,35.23,0,0,0,1.09,6c.21.74.05.07,1.63,4.36,0,0,.41,1.12.54,1.09a8,8,0,0,1,0-2.18c.14-.57.43-1.12.55-1.09s0,.75,0,1.63a11.88,11.88,0,0,0,.54,3.27,27.15,27.15,0,0,0,1.09,3.27,16.83,16.83,0,0,0,2.18,4.35,5.13,5.13,0,0,0,1.63,1.64c.07-.06-.8-.94-.54-1.64a1,1,0,0,1,.54-.54c.07,0,.38-.14.55,0s0,.6,0,1.09a3,3,0,0,0,.54,1.63c4.61,8.48,8.71,12,8.71,12,3.34,2.84,6.81,4.67,8.71,7.07.12.16.94,1.19,1.09,1.09s-.21-1-.54-1.63-.63-1-.55-1.09.74.28,1.09.55a5.73,5.73,0,0,1,1.09,1.08c.69.91.5,1.34,1.09,2.18a5.06,5.06,0,0,0,1.09,1.09,29.48,29.48,0,0,0,7.08,4.36,28.63,28.63,0,0,0,3.81,1.09,42.46,42.46,0,0,0,7.62,1.08,6.84,6.84,0,0,0,1.63,0,6,6,0,0,0,3.81-1.63c.52-.55.83-1.17,1.09-1.09s.12.79.55,1.09c.25.18.52.07,1.09,0,0,0,.18,0,1.63,0s4.71,1.34,7.62,3.81a8.06,8.06,0,0,1,1.64,1.64c.7,1,.61,1.69,1.63,3.81.25.52.38.78.54,1.09.72,1.31,1.06,1.53,1.09,2.17s0,1.09,0,1.09c0,.31,0,.54,0,.55s.29-1.33,1.09-1.64a.67.67,0,0,1,.55,0c.27.18.13.89,0,1.64a.83.83,0,0,0,0,.54c.12.32.4.33.54.55.25.38-.29,1-.54,1.63a3.85,3.85,0,0,0,.54,3.27s-.45-1.31,0-1.64a.45.45,0,0,1,.54,0c.07.08,0,.18,0,.55a1.85,1.85,0,0,0,0,.54c.08.29.35.38.55.55a2.3,2.3,0,0,1,0,2.72c-.19.26-.4.25-.55.54a1.63,1.63,0,0,0,0,1.09,2.05,2.05,0,0,0,.55,1.09c.07,0-.22-.55,0-1.09.13-.33.43-.6.54-.54s0,.36,0,.54a3.91,3.91,0,0,0,1.09,2.72c.58.63,1,.58,2.18,1.09s2.3,1.47,4.36,3.27a12.13,12.13,0,0,1,2.17,2.18c-.05.06-.93-.7-1.09-.55s.16.67.55,1.09.79.5,1.63,1.09c.5.35,1.18.91,1.09,1.09s-.46-.13-1.09,0a2.66,2.66,0,0,0-1.09.54,2.11,2.11,0,0,0-.54.55s.61-.69,1.09-.55c.14,0,.17.14.54.55s.4.38.55.54c.42.48.79,1.32.54,1.63s-1.27-.34-1.63,0c-.53.51.73,2.75,1.63,4.36a12,12,0,0,1,1.09,2.18,10,10,0,0,0,.54,1.63,4.37,4.37,0,0,0,1.64,1.63,9.06,9.06,0,0,1,3.26,3.27,5,5,0,0,1,.55,1.63,2.36,2.36,0,0,1,0,1.09c-.18.62-.57.69-.55,1.09s.44.5.55,1.09a1.61,1.61,0,0,1,0,.55c-.19,1.43,1.56,5.28,1.63,5.44.45,1,.92,1.28,1.09,2.18a5.44,5.44,0,0,1,0,1.63c-.17,2.9,4.27,4.26,5.44,7.62a3.22,3.22,0,0,0,1.09,1.64,4.12,4.12,0,0,0,1.64.54,7.63,7.63,0,0,1,2.72,1.63c3.8,2.83,3.81,2.58,4.35,3.27.25.32.48.66,1.64,3.81,1.33,3.64,2,5.49,2.18,7.08.15,1.33-.09.66,0,4.35.06,2.83.22,4-.55,5.45-.45.82-.67.74-1.09,1.63a8.14,8.14,0,0,0-.54,3.81c0,1.65,0,2.47.54,3.27a4.52,4.52,0,0,0,2.18,1.63,13.56,13.56,0,0,0,10.34.55c.75-.29,1.72-.35,2.18-1.09s.23-1.48,0-2.72c0-.19-.05-.28-.05-.29s1.69,8.08-.49-4.07c-.87-4.87-1.09-6-1.09-6-1.24-6.41-1.27-6.69-1.63-8.16,0,0-.61-2.45-1.64-5.45a14.59,14.59,0,0,0-1.09-2.72c-.38-.63-.64-.87-.54-1.09.24-.52,2.29-.41,3.81.54a5.83,5.83,0,0,1,2.18,2.73,8.07,8.07,0,0,1,.54,3.81c-.15,3.62-1.44,4.55-1.63,7.08,0,.3.55,2.19,1.63,6a2.58,2.58,0,0,0,.55,1.09c.33.4.91.81,3.26,1.09,1.78.21,2.67.32,3.27,0a3.86,3.86,0,0,0,1.63-2.72C372.4,336.25,370.72,334.23,370.84,329ZM349.06,215.23a8.48,8.48,0,0,0-1.09-1.09c-1-.7-1.84-.78-4.35-1.63-.65-.22-1.11-.39-1.09-.55s2,0,2.18-.54c.34-.81-3.6-3.23-5.45-4.36-8-4.89-11.58-6.67-13.56-7.66.08-.06.25-.24,1-1.05,1.29-1.31,1.94-2,2.18-2.17a9.57,9.57,0,0,1,3.26-1.64c.16,0,.46-.12.55,0s-.45,1-.55,1.09c-.32.39-.57.44-.54.55s1.18.16,2.18,0c1.33-.23,1.32-.48,2.17-.55a7.13,7.13,0,0,1,2.73.55c1.28.39,2.16.68,2.17,1.08s-1.14.72-1.08,1.09.8.35,1.63.55a25.52,25.52,0,0,1,2.72,1.09c2.46,1,2.83,1.08,3.27,1.63.18.22.42.59.54.54s-.35-1.39,0-1.63,1.16.32,1.64,1.09.28,1.19.54,2.18a7.72,7.72,0,0,0,1.09,2.18c2.51,4,2.52,4,2.72,4.35.56,1.07.69,2.55,1.09,5.45a4.28,4.28,0,0,1,0,2.17,2.59,2.59,0,0,1-.58.94.17.17,0,0,1,0,.15c0,.14-.25.21-.52.26-.38.26-.77.45-1.09.66-.29-.11-.59-.25-.57-.37s1-.18,1.66-.29a3.07,3.07,0,0,0,.48-.41C354.11,218.36,351.44,217.63,349.06,215.23Z"/></g></g></svg>